<svg width="36" height="36" viewBox="0 0 36 36" fill="none" xmlns="http://www.w3.org/2000/svg">
<path d="M0 18C-3.52233e-08 15.6362 0.465584 13.2956 1.37017 11.1117C2.27475 8.92784 3.60062 6.94353 5.27208 5.27208C6.94353 3.60062 8.92784 2.27475 11.1117 1.37017C13.2956 0.465584 15.6362 0 18 0C20.3638 0 22.7044 0.465584 24.8883 1.37017C27.0722 2.27475 29.0565 3.60062 30.7279 5.27208C32.3994 6.94353 33.7252 8.92784 34.6298 11.1117C35.5344 13.2956 36 15.6362 36 18C36 22.7739 34.1036 27.3523 30.7279 30.7279C27.3523 34.1036 22.7739 36 18 36C13.2261 36 8.64773 34.1036 5.27208 30.7279C1.89642 27.3523 7.11366e-08 22.7739 0 18ZM18 9C17.6022 9 17.2206 9.15804 16.9393 9.43934C16.658 9.72064 16.5 10.1022 16.5 10.5V16.5H10.5C10.1022 16.5 9.72064 16.658 9.43934 16.9393C9.15804 17.2206 9 17.6022 9 18C9 18.3978 9.15804 18.7794 9.43934 19.0607C9.72064 19.342 10.1022 19.5 10.5 19.5H16.5V25.5C16.5 25.8978 16.658 26.2794 16.9393 26.5607C17.2206 26.842 17.6022 27 18 27C18.3978 27 18.7794 26.842 19.0607 26.5607C19.342 26.2794 19.5 25.8978 19.5 25.5V19.5H25.5C25.8978 19.5 26.2794 19.342 26.5607 19.0607C26.842 18.7794 27 18.3978 27 18C27 17.6022 26.842 17.2206 26.5607 16.9393C26.2794 16.658 25.8978 16.5 25.5 16.5H19.5V10.5C19.5 10.1022 19.342 9.72064 19.0607 9.43934C18.7794 9.15804 18.3978 9 18 9Z" fill="#4AB18D"/>
</svg>
