<svg width="22" height="15" viewBox="0 0 22 15" fill="none" xmlns="http://www.w3.org/2000/svg">
<path d="M0.000106812 12.5112C-0.00069046 12.191 0.0511169 11.8746 0.151724 11.5853C0.252331 11.296 0.399181 11.0411 0.581482 10.8394L10.0092 0.487562C10.2903 0.17233 10.643 0 11.0069 0C11.3709 0 11.7235 0.17233 12.0047 0.487562L21.4324 11.2038C21.7533 11.5676 21.955 12.0903 21.9934 12.6571C22.0317 13.2238 21.9033 13.7881 21.6366 14.2257C21.3699 14.6634 20.9867 14.9387 20.5712 14.9909C20.1557 15.0432 19.742 14.8682 19.4211 14.5044L10.9991 4.92407L2.57701 14.1829C2.34637 14.445 2.06552 14.6114 1.76768 14.6626C1.46985 14.7138 1.16749 14.6475 0.896404 14.4717C0.625317 14.2958 0.396833 14.0177 0.237993 13.6703C0.0791512 13.3228 -0.0033989 12.9206 0.000106812 12.5112Z" fill="#48B18B"/>
</svg>
