<svg width="15" height="22" viewBox="0 0 15 22" fill="none" xmlns="http://www.w3.org/2000/svg">
<path d="M12.5112 21.9999C12.191 22.0007 11.8746 21.9489 11.5853 21.8483C11.296 21.7477 11.0411 21.6008 10.8394 21.4185L0.487562 11.9908C0.17233 11.7097 0 11.357 0 10.9931C0 10.6291 0.17233 10.2765 0.487562 9.99531L11.2038 0.567629C11.5676 0.246747 12.0903 0.0449563 12.6571 0.00664887C13.2238 -0.0316585 13.7881 0.0966553 14.2257 0.363362C14.6634 0.630069 14.9387 1.01332 14.9909 1.42881C15.0432 1.8443 14.8682 2.25799 14.5044 2.57887L4.92407 11.0009L14.1829 19.423C14.445 19.6536 14.6114 19.9345 14.6626 20.2323C14.7138 20.5302 14.6475 20.8325 14.4717 21.1036C14.2958 21.3747 14.0177 21.6032 13.6703 21.762C13.3228 21.9208 12.9206 22.0034 12.5112 21.9999Z" fill="white"/>
</svg>
