<svg width="24" height="36" viewBox="0 0 24 36" fill="none" xmlns="http://www.w3.org/2000/svg">
<path d="M20.0346 0.489609C23.6676 1.72861 24.9696 8.99461 21.0256 10.7866C19.4396 11.5066 16.9766 12.2976 14.8406 11.8186C12.1036 11.2056 10.1196 11.5806 10.1196 11.5806C10.1196 11.5806 14.9166 13.7706 16.4586 17.9036C18.0006 22.0366 17.5306 25.0746 19.6936 27.0666C21.4016 28.6396 22.4836 30.7666 21.3326 32.0606C19.7876 33.7986 17.4036 32.0326 15.2326 34.5406C13.7106 36.2986 10.4226 35.7226 8.14461 34.6826C5.26561 33.3686 8.95161 32.4916 9.98661 32.3856C11.1366 32.2686 15.2766 30.0376 13.3166 26.8416C9.12061 20.0006 4.81561 16.2976 2.00361 14.2316C-0.510388 12.3856 -0.768387 8.91861 1.85661 5.76661C3.51861 3.77061 7.08561 2.21261 11.1096 1.03361C13.9096 0.212609 17.0826 -0.517391 20.0346 0.489609Z" fill="#D5AB88"/>
</svg>
