<svg width="43" height="37" viewBox="0 0 43 37" fill="none" xmlns="http://www.w3.org/2000/svg">
<path d="M20.5417 14.4167V36.875H4.20833C3.12537 36.875 2.08675 36.4448 1.32098 35.679C0.555207 34.9132 0.125 33.8746 0.125 32.7917V4.20833C0.125 3.12537 0.555207 2.08675 1.32098 1.32098C2.08675 0.555207 3.12537 0.125 4.20833 0.125H32.7917C33.8746 0.125 34.9132 0.555207 35.679 1.32098C36.4448 2.08675 36.875 3.12537 36.875 4.20833V14.4167H20.5417ZM16.4583 14.4167H4.20833V22.5833H16.4583V14.4167ZM16.4583 32.7917V26.6667H4.20833V32.7917H16.4583ZM20.5417 4.20833V10.3333H32.7917V4.20833H20.5417ZM16.4583 4.20833H4.20833V10.3333H16.4583V4.20833Z" fill="#66848A"/>
<path d="M32.791 36.8748V30.7498H26.666V26.6665H32.791V20.5415H36.8744V26.6665H42.9994V30.7498H36.8744V36.8748H32.791Z" fill="#66848A"/>
</svg>
