<svg width="41" height="40" viewBox="0 0 41 40" fill="none" xmlns="http://www.w3.org/2000/svg">
<path d="M1.11151e-07 3.31471C-0.000159097 2.70722 0.170718 2.11138 0.493956 1.5923C0.817195 1.07322 1.28036 0.650878 1.83282 0.371431C2.38529 0.091983 3.00581 -0.0338171 3.62655 0.00777854C4.2473 0.0493742 4.84439 0.256765 5.35257 0.607286L29.563 17.2926C30.0071 17.5986 30.3694 18.0042 30.6194 18.4753C30.8695 18.9465 31 19.4694 31 20C31 20.5306 30.8695 21.0535 30.6194 21.5247C30.3694 21.9958 30.0071 22.4014 29.563 22.7074L5.35257 39.3927C4.84439 39.7432 4.2473 39.9506 3.62655 39.9922C3.00581 40.0338 2.38529 39.908 1.83282 39.6286C1.28036 39.3491 0.817195 38.9268 0.493956 38.4077C0.170718 37.8886 -0.000159097 37.2928 1.11151e-07 36.6853V3.31471Z" fill="#48B18B"/>
<path d="M41 2.5C41 1.83696 40.6839 1.20107 40.1213 0.732233C39.5587 0.263392 38.7956 0 38 0C37.2044 0 36.4413 0.263392 35.8787 0.732233C35.3161 1.20107 35 1.83696 35 2.5V37.5C35 38.163 35.3161 38.7989 35.8787 39.2678C36.4413 39.7366 37.2044 40 38 40C38.7956 40 39.5587 39.7366 40.1213 39.2678C40.6839 38.7989 41 38.163 41 37.5V2.5Z" fill="#48B18B"/>
</svg>
