<svg width="22" height="21" viewBox="0 0 22 21" fill="none" xmlns="http://www.w3.org/2000/svg">
<path d="M22 18.9702L21.749 18.7542C21.0369 18.1357 20.4136 17.4263 19.896 16.6452C19.3306 15.5674 18.9918 14.3903 18.8993 13.183V9.62725C18.9042 7.73103 18.1987 5.89834 16.9154 4.4735C15.6322 3.04867 13.8594 2.12977 11.9302 1.88946V0.960925C11.9302 0.706072 11.8264 0.461657 11.6415 0.281449C11.4567 0.10124 11.206 0 10.9446 0C10.6832 0 10.4326 0.10124 10.2477 0.281449C10.0629 0.461657 9.95906 0.706072 9.95906 0.960925V1.90386C8.04717 2.16149 6.29582 3.08594 5.02938 4.50599C3.76295 5.92604 3.06725 7.74545 3.07114 9.62725V13.183C2.97868 14.3903 2.63984 15.5674 2.0745 16.6452C1.56575 17.4243 0.952493 18.1336 0.251007 18.7542L0 18.9702V21H22V18.9702Z" fill="white"/>
</svg>
