<svg width="22" height="15" viewBox="0 0 22 15" fill="none" xmlns="http://www.w3.org/2000/svg">
<path d="M21.9999 2.48884C22.0007 2.80903 21.9489 3.1254 21.8483 3.41469C21.7477 3.70399 21.6008 3.95886 21.4185 4.16057L11.9908 14.5124C11.7097 14.8277 11.357 15 10.9931 15C10.6291 15 10.2765 14.8277 9.99531 14.5124L0.567629 3.79622C0.246747 3.43243 0.0449563 2.90967 0.00664887 2.34294C-0.0316585 1.77621 0.0966553 1.21194 0.363362 0.77425C0.630069 0.336564 1.01332 0.0613203 1.42881 0.00906849C1.8443 -0.0431833 2.25799 0.131837 2.57887 0.495628L11.0009 10.0759L19.423 0.817116C19.6536 0.555034 19.9345 0.388553 20.2323 0.337373C20.5302 0.286193 20.8325 0.352456 21.1036 0.528321C21.3747 0.704187 21.6032 0.982294 21.762 1.32974C21.9208 1.67718 22.0034 2.07941 21.9999 2.48884Z" fill="#48B18B"/>
</svg>
