<svg width="16" height="21" viewBox="0 0 16 21" fill="none" xmlns="http://www.w3.org/2000/svg">
<path d="M13.7143 5.83333V8.16667C14.9714 8.16667 16 9.21667 16 10.5V18.6667C16 19.95 14.9714 21 13.7143 21H2.28571C1.02857 21 0 19.95 0 18.6667V10.5C0 9.21667 1.02857 8.16667 2.28571 8.16667V5.83333C2.28571 2.61333 4.84571 0 8 0C11.1543 0 13.7143 2.61333 13.7143 5.83333ZM5.71429 5.83333V8.16667H10.2857V5.83333C10.2857 4.55 9.25714 3.5 8 3.5C6.74286 3.5 5.71429 4.55 5.71429 5.83333ZM8.91429 17.7917V15.26C9.71429 14.8983 10.2857 14.0817 10.2857 13.125C10.2857 11.8417 9.25714 10.7917 8 10.7917C6.74286 10.7917 5.71429 11.8417 5.71429 13.125C5.71429 14.0817 6.28571 14.8983 7.08571 15.26V17.7917H8.91429Z" fill="white"/>
</svg>
