<svg width="40" height="40" viewBox="0 0 40 40" fill="none" xmlns="http://www.w3.org/2000/svg">
<path d="M40 3.31471C40.0002 2.70722 39.8293 2.11138 39.506 1.5923C39.1828 1.07322 38.7196 0.650878 38.1672 0.371431C37.6147 0.091983 36.9942 -0.0338171 36.3734 0.00777854C35.7527 0.0493742 35.1556 0.256765 34.6474 0.607286L10.437 17.2926C9.99292 17.5986 9.63063 18.0042 9.38058 18.4753C9.13052 18.9465 9 19.4694 9 20C9 20.5306 9.13052 21.0535 9.38058 21.5247C9.63063 21.9958 9.99292 22.4014 10.437 22.7074L34.6474 39.3927C35.1556 39.7432 35.7527 39.9506 36.3734 39.9922C36.9942 40.0338 37.6147 39.908 38.1672 39.6286C38.7196 39.3491 39.1828 38.9268 39.506 38.4077C39.8293 37.8886 40.0002 37.2928 40 36.6853V3.31471Z" fill="#48B18B"/>
<path d="M0 4.3125C0 3.69919 0.263393 3.11099 0.732234 2.67732C1.20108 2.24364 1.83696 2 2.5 2C3.16304 2 3.79892 2.24364 4.26777 2.67732C4.73661 3.11099 5 3.69919 5 4.3125V36.6875C5 37.3008 4.73661 37.889 4.26777 38.3227C3.79892 38.7564 3.16304 39 2.5 39C1.83696 39 1.20108 38.7564 0.732234 38.3227C0.263393 37.889 0 37.3008 0 36.6875V4.3125Z" fill="#48B18B"/>
</svg>
