<svg width="29" height="29" viewBox="0 0 29 29" fill="none" xmlns="http://www.w3.org/2000/svg">
<path fill-rule="evenodd" clip-rule="evenodd" d="M19.772 10.5454C19.772 11.9438 19.2165 13.285 18.2277 14.2738C17.2388 15.2626 15.8977 15.8182 14.4993 15.8182C13.1009 15.8182 11.7597 15.2626 10.7709 14.2738C9.78208 13.285 9.22656 11.9438 9.22656 10.5454C9.22656 9.14702 9.78208 7.80588 10.7709 6.81705C11.7597 5.82822 13.1009 5.27271 14.4993 5.27271C15.8977 5.27271 17.2388 5.82822 18.2277 6.81705C19.2165 7.80588 19.772 9.14702 19.772 10.5454ZM17.1357 10.5454C17.1357 11.2446 16.8579 11.9152 16.3635 12.4096C15.8691 12.904 15.1985 13.1818 14.4993 13.1818C13.8001 13.1818 13.1295 12.904 12.6351 12.4096C12.1407 11.9152 11.8629 11.2446 11.8629 10.5454C11.8629 9.84623 12.1407 9.17566 12.6351 8.68124C13.1295 8.18683 13.8001 7.90907 14.4993 7.90907C15.1985 7.90907 15.8691 8.18683 16.3635 8.68124C16.8579 9.17566 17.1357 9.84623 17.1357 10.5454Z" fill="white"/>
<path fill-rule="evenodd" clip-rule="evenodd" d="M14.5 0C6.49205 0 0 6.49205 0 14.5C0 22.508 6.49205 29 14.5 29C22.508 29 29 22.508 29 14.5C29 6.49205 22.508 0 14.5 0ZM2.63636 14.5C2.63636 17.255 3.57623 19.7912 5.15145 21.8054C6.25771 20.3526 7.68487 19.1753 9.32143 18.3653C10.958 17.5554 12.7597 17.1348 14.5857 17.1364C16.3881 17.1347 18.1671 17.5444 19.7871 18.3343C21.4072 19.1242 22.8256 20.2735 23.9342 21.6946C25.0764 20.1967 25.8454 18.4482 26.1776 16.5941C26.5099 14.7399 26.3958 12.8332 25.8449 11.0318C25.294 9.23048 24.3221 7.5862 23.0095 6.23505C21.6969 4.8839 20.0815 3.86472 18.2969 3.26185C16.5122 2.65898 14.6097 2.48974 12.7466 2.76815C10.8836 3.04655 9.11363 3.76458 7.5832 4.86284C6.05276 5.9611 4.80584 7.40801 3.94562 9.08385C3.0854 10.7597 2.6366 12.6163 2.63636 14.5ZM14.5 26.3636C11.7766 26.3677 9.13535 25.4308 7.02327 23.7115C7.87341 22.4944 9.00495 21.5008 10.3216 20.815C11.6383 20.1292 13.1011 19.7717 14.5857 19.7727C16.0517 19.7716 17.4969 20.1202 18.8011 20.7896C20.1054 21.459 21.2311 22.43 22.0848 23.6218C19.9563 25.397 17.2716 26.3675 14.5 26.3636Z" fill="white"/>
</svg>
