<svg width="20" height="20" viewBox="0 0 20 20" fill="none" xmlns="http://www.w3.org/2000/svg">
<path d="M7 9.75C6.66848 9.75 6.35054 9.8817 6.11612 10.1161C5.8817 10.3505 5.75 10.6685 5.75 11C5.75 11.3315 5.8817 11.6495 6.11612 11.8839C6.35054 12.1183 6.66848 12.25 7 12.25C7.33152 12.25 7.64946 12.1183 7.88388 11.8839C8.1183 11.6495 8.25 11.3315 8.25 11C8.25 10.6685 8.1183 10.3505 7.88388 10.1161C7.64946 9.8817 7.33152 9.75 7 9.75ZM13 9.75C12.6685 9.75 12.3505 9.8817 12.1161 10.1161C11.8817 10.3505 11.75 10.6685 11.75 11C11.75 11.3315 11.8817 11.6495 12.1161 11.8839C12.3505 12.1183 12.6685 12.25 13 12.25C13.3315 12.25 13.6495 12.1183 13.8839 11.8839C14.1183 11.6495 14.25 11.3315 14.25 11C14.25 10.6685 14.1183 10.3505 13.8839 10.1161C13.6495 9.8817 13.3315 9.75 13 9.75ZM10 0C4.48 0 0 4.48 0 10C0 15.52 4.48 20 10 20C15.52 20 20 15.52 20 10C20 4.48 15.52 0 10 0ZM10 18C5.59 18 2 14.41 2 10C2 9.71 2.02 9.42 2.05 9.14C4.41 8.09 6.28 6.16 7.26 3.77C8.40326 5.39238 10.0046 6.63679 11.859 7.34401C13.7135 8.05124 15.7367 8.18911 17.67 7.74C17.88 8.45 18 9.21 18 10C18 14.41 14.41 18 10 18Z" fill="white"/>
</svg>
